<svg id="_x31__px" height="512" viewBox="0 0 24 24" width="512" xmlns="http://www.w3.org/2000/svg"><path d="m19.8 24h-15.6c-.49 0-.956-.211-1.278-.58-.323-.369-.472-.858-.407-1.344l2.08-15.6c.112-.842.837-1.476 1.685-1.476h11.44c.849 0 1.573.634 1.686 1.476l2.08 15.6c.064.486-.084.976-.407 1.344-.323.369-.789.58-1.279.58zm-13.52-18c-.35 0-.647.261-.693.607l-2.08 15.6c-.027.203.032.399.167.554.135.154.321.239.526.239h15.6c.205 0 .392-.085.526-.239.135-.154.194-.351.167-.554l-2.08-15.6c-.046-.346-.344-.607-.693-.607z"/><path d="m14.5 8c-.276 0-.5-.224-.5-.5v-4.5c0-1.103-.897-2-2-2s-2 .897-2 2v4.5c0 .276-.224.5-.5.5s-.5-.224-.5-.5v-4.5c0-1.654 1.346-3 3-3s3 1.346 3 3v4.5c0 .276-.224.5-.5.5z"/></svg>